<svg width="16" height="16" viewBox="0 0 16 16" fill="none" xmlns="http://www.w3.org/2000/svg">
<path fill-rule="evenodd" clip-rule="evenodd" d="M10.587 13.9467C10.607 14.0534 10.547 14.1667 10.447 14.2067C9.69363 14.5067 8.86698 14.6667 8.01365 14.6667C6.54032 14.6667 5.1803 14.1934 4.0803 13.38C3.98697 13.3134 3.96033 13.18 4.02033 13.08C4.38699 12.4267 5.82029 10.3267 8.98696 9.15336C9.10696 9.10669 9.24029 9.16668 9.28029 9.28668C10.0736 11.4133 10.447 13.2134 10.587 13.9467Z" fill="white"/>
<path fill-rule="evenodd" clip-rule="evenodd" d="M14.5468 9.25999C14.2401 10.9 13.3201 12.3267 12.0334 13.3C11.8934 13.4067 11.6934 13.3266 11.6601 13.16C11.5201 12.44 11.1801 10.8866 10.5267 9.03998C10.4801 8.89998 10.5734 8.74664 10.7201 8.72664C12.3801 8.52664 13.8334 8.84664 14.3801 8.9933C14.4934 9.0333 14.5668 9.14665 14.5468 9.25999Z" fill="white"/>
<path fill-rule="evenodd" clip-rule="evenodd" d="M14.3938 7.87999C13.7138 7.75999 11.9805 7.50664 10.2071 7.69998C10.1005 7.71331 10.0071 7.65331 9.96047 7.55331C9.9338 7.49331 9.91381 7.43332 9.88715 7.37332C9.78048 7.12665 9.66715 6.87332 9.55381 6.62665C9.49381 6.50665 9.55381 6.35998 9.67381 6.30664C11.5405 5.49998 12.5805 4.45998 12.9871 3.99331C13.0871 3.87998 13.2605 3.88666 13.3538 4.00666C14.1205 5.02666 14.5938 6.27331 14.6671 7.61998C14.6738 7.78665 14.5405 7.90666 14.3938 7.87999Z" fill="white"/>
<path fill-rule="evenodd" clip-rule="evenodd" d="M12.2933 3.19334C11.9466 3.61334 10.9733 4.61333 9.12664 5.34666C9.01997 5.39333 8.8933 5.34666 8.8333 5.23999C7.97997 3.69332 7.07329 2.39333 6.65329 1.80666C6.55329 1.66666 6.63331 1.46667 6.79998 1.44C7.18665 1.37334 7.59331 1.34001 8.00664 1.34001C9.61998 1.34001 11.1066 1.91333 12.26 2.87333C12.36 2.94666 12.3733 3.09334 12.2933 3.19334Z" fill="white"/>
<path fill-rule="evenodd" clip-rule="evenodd" d="M7.34717 5.89326C4.8205 6.52659 2.58714 6.61326 1.77381 6.6266C1.62047 6.6266 1.50716 6.47993 1.54716 6.33326C2.02716 4.4666 3.30715 2.9066 4.99382 2.0466C5.09382 1.99327 5.22049 2.02659 5.28715 2.11992C5.63382 2.59992 6.57382 3.95327 7.49382 5.5466C7.56715 5.67993 7.5005 5.85326 7.34717 5.89326Z" fill="white"/>
<path fill-rule="evenodd" clip-rule="evenodd" d="M8.61316 7.73323C8.67316 7.8599 8.59984 8.01322 8.46651 8.05989C5.51318 9.01322 3.74651 11.3799 3.21318 12.1932C3.12651 12.3266 2.93984 12.3332 2.83984 12.2132C1.90651 11.0666 1.33984 9.75322 1.33984 8.15989V8.03989C1.33984 7.90656 1.4465 7.79989 1.57983 7.80655C2.41983 7.83989 5.15984 7.72655 8.00651 6.90655C8.11318 6.87322 8.23316 6.92657 8.27982 7.02657C8.39316 7.2599 8.50649 7.49323 8.61316 7.73323Z" fill="white"/>
</svg>
