<svg width="16" height="16" viewBox="0 0 16 16" fill="none" xmlns="http://www.w3.org/2000/svg">
<path d="M14.6663 10.7934C14.6663 13.22 13.2197 14.6667 10.793 14.6667H9.99967C9.63301 14.6667 9.33301 14.3667 9.33301 14V10.1534C9.33301 9.97336 9.47967 9.82002 9.65967 9.82002L10.833 9.80002C10.9263 9.79336 11.0063 9.72669 11.0263 9.63336L11.2597 8.36002C11.2797 8.24002 11.1863 8.12668 11.0597 8.12668L9.63967 8.14668C9.453 8.14668 9.30635 8.00002 9.29968 7.82002L9.27301 6.18668C9.27301 6.08002 9.35967 5.98669 9.473 5.98669L11.073 5.96002C11.1863 5.96002 11.273 5.87336 11.273 5.76003L11.2463 4.16001C11.2463 4.04668 11.1597 3.96002 11.0463 3.96002L9.24634 3.98669C8.13967 4.00669 7.25968 4.91335 7.27968 6.02002L7.31301 7.85335C7.31968 8.04002 7.17302 8.18669 6.98635 8.19336L6.18634 8.20668C6.07301 8.20668 5.98635 8.29334 5.98635 8.40667L6.00635 9.67336C6.00635 9.78669 6.09301 9.87335 6.20634 9.87335L7.00635 9.86002C7.19301 9.86002 7.33967 10.0067 7.34633 10.1867L7.40633 13.9867C7.413 14.36 7.113 14.6667 6.73967 14.6667H5.20634C2.77967 14.6667 1.33301 13.22 1.33301 10.7867V5.20668C1.33301 2.78001 2.77967 1.33335 5.20634 1.33335H10.793C13.2197 1.33335 14.6663 2.78001 14.6663 5.20668V10.7934Z" fill="white"/>
</svg>
