<svg width="16" height="16" viewBox="0 0 16 16" fill="none" xmlns="http://www.w3.org/2000/svg">
<path d="M11.333 2.33345H4.66634C2.66634 2.33345 1.33301 3.33345 1.33301 5.66678V10.3334C1.33301 12.6668 2.66634 13.6668 4.66634 13.6668H11.333C13.333 13.6668 14.6663 12.6668 14.6663 10.3334V5.66678C14.6663 3.33345 13.333 2.33345 11.333 2.33345ZM11.6463 6.39345L9.55968 8.06011C9.11967 8.41345 8.55967 8.58678 7.99967 8.58678C7.43967 8.58678 6.87301 8.41345 6.43967 8.06011L4.35301 6.39345C4.13967 6.22011 4.10634 5.90011 4.27301 5.68678C4.44634 5.47345 4.75967 5.43345 4.97301 5.60678L7.05967 7.27345C7.56634 7.68011 8.42634 7.68011 8.93301 7.27345L11.0197 5.60678C11.233 5.43345 11.553 5.46678 11.7197 5.68678C11.893 5.90011 11.8597 6.22011 11.6463 6.39345Z" fill="white"/>
</svg>
